<?xml version="1.0" encoding="UTF-8"?>
<svg version="1.1" xmlns="http://www.w3.org/2000/svg" width="419" height="467">
<path d="M0 0 C1.19496094 0.31710938 2.38992187 0.63421875 3.62109375 0.9609375 C33.72600816 9.94462624 58.25333845 30.86235097 73.15234375 58.37109375 C82.2726086 75.89695818 86.21741956 94.09508271 85.89453125 113.78125 C85.86917595 117.21161001 85.86108017 120.64203649 85.85153675 124.07247162 C85.83807666 127.64762178 85.80298751 131.22012088 85.72241211 134.79443359 C85.64524265 138.27249723 85.62710886 141.74652341 85.6482296 145.22532654 C85.64460423 147.17941602 85.57973263 149.13308523 85.5136261 151.08605957 C85.56231943 154.75841674 85.72062869 157.55273627 87 161 C89.85123831 163.48614784 92.5685845 165.0139521 96.00151062 166.58703613 C105.20146334 170.92228603 111.52336728 180.9960419 115.2890625 190.125 C117.96421273 197.82327404 119.11889906 205.06365688 119.14717102 213.22593689 C119.15084771 213.91891626 119.1545244 214.61189564 119.1583125 215.32587439 C119.16925678 217.62993638 119.17317734 219.93395313 119.17700195 222.23803711 C119.18327378 223.8978184 119.18992121 225.5575983 119.19691467 227.21737671 C119.21787809 232.65402259 119.22831224 238.0906685 119.23828125 243.52734375 C119.24233218 245.40631181 119.2464492 247.28527974 119.25063133 249.16424751 C119.26966882 257.9976906 119.2839009 266.83112542 119.2922433 275.66458505 C119.30199998 285.82503444 119.32828454 295.98526506 119.36874419 306.14563745 C119.39902036 314.02197376 119.41372316 321.89824778 119.41702431 329.7746411 C119.41936234 334.46778412 119.42815833 339.16069308 119.45348549 343.85377312 C119.47697252 348.27718948 119.48091773 352.70022109 119.47072411 357.12368393 C119.47023355 358.73437731 119.47640961 360.34509099 119.49028015 361.95572472 C119.62882855 379.01837992 116.85351486 396.27034884 104.80859375 409.31640625 C93.74099258 419.61907603 81.55130451 425.15065442 66.46910095 425.14717102 C65.61166607 425.15084771 64.75423119 425.1545244 63.87081343 425.1583125 C60.99842356 425.16932311 58.1260699 425.17318875 55.25366211 425.17700195 C53.19360235 425.18326864 51.13354373 425.18991563 49.07348633 425.19691467 C42.30811344 425.2179351 35.54274039 425.22831599 28.77734375 425.23828125 C26.44571992 425.24232972 24.1140962 425.24644667 21.78247261 425.25063133 C10.82610096 425.2696795 -0.13026398 425.28391066 -11.086649 425.2922433 C-23.72050124 425.3020111 -36.35417806 425.32832039 -48.9879685 425.36874419 C-58.76142589 425.39893922 -68.53483309 425.41371545 -78.3083362 425.41702431 C-84.14154532 425.41937114 -89.97456696 425.42828381 -95.80772591 425.45348549 C-101.29973174 425.47683001 -106.79142749 425.4809737 -112.28347015 425.47072411 C-114.29252849 425.47023017 -116.30160243 425.47650835 -118.31061363 425.49028015 C-135.79833072 425.60339313 -149.324051 422.66031785 -163 411 C-176.88504033 396.01046783 -179.47036093 379.64952483 -179.38818359 359.93554688 C-179.39225952 358.27148598 -179.39760707 356.6074278 -179.40411377 354.94337463 C-179.41767194 350.4660649 -179.41253679 345.98896491 -179.40297651 341.51165199 C-179.39531975 336.80036527 -179.40244208 332.08909513 -179.40713501 327.37780762 C-179.41257518 319.46977554 -179.4054468 311.56182783 -179.39111328 303.65380859 C-179.37479014 294.54354512 -179.38007989 285.43348315 -179.3965925 276.32322454 C-179.41025713 268.46629549 -179.41210281 260.60942668 -179.40427649 252.75248957 C-179.39962722 248.07522949 -179.39889875 243.39806375 -179.40888596 238.72080994 C-179.41762622 234.32112754 -179.4114065 229.92170202 -179.39420319 225.52204704 C-179.3902757 223.91858786 -179.39130723 222.31510663 -179.39799118 220.71165657 C-179.46756583 202.30786361 -176.53540046 186.02038271 -163.44140625 172.26171875 C-158.47703827 167.66272825 -153.06193246 163.98119994 -147 161 C-146.99635437 160.28019958 -146.99270874 159.56039917 -146.98895264 158.81878662 C-146.95062388 151.93762383 -146.89328122 145.05683514 -146.81609726 138.17600632 C-146.77707328 134.64092263 -146.74467011 131.10607126 -146.72900391 127.57080078 C-146.5482267 89.56323305 -138.97625774 57.68126407 -112.0625 29.6875 C-82.85902369 1.58777712 -39.48074153 -10.94956304 0 0 Z M-76.875 66.4375 C-100.80329817 92.20188046 -95 121.4545523 -95 157 C-52.1 157 -9.2 157 35 157 C37.9137045 106.02203143 37.9137045 106.02203143 15.828125 65.66015625 C-10.74885728 40.66164115 -50.56108639 41.64733194 -76.875 66.4375 Z M-55.3125 241.25 C-61.34133781 248.45578224 -64.38825219 256.33248361 -64.2109375 265.765625 C-63.19051281 276.57456801 -57.73946096 285.16923177 -49.515625 292.00390625 C-48.02371572 293.18307362 -48.02371572 293.18307362 -46 293 C-46.00888245 293.78625259 -46.01776489 294.57250519 -46.0269165 295.38258362 C-46.10724598 302.81202128 -46.16805703 310.24124675 -46.20724869 317.6710062 C-46.22807536 321.49025138 -46.25630161 325.30913608 -46.30175781 329.12817383 C-46.34539325 332.81755527 -46.36917408 336.50659117 -46.37950897 340.19621086 C-46.38686883 341.59997938 -46.40124091 343.00373014 -46.42292023 344.40735054 C-46.68611316 354.94496865 -46.68611316 354.94496865 -42 364 C-37.01310087 367.96916462 -32.92133361 368.64794362 -26.5859375 368.37890625 C-21.44297973 367.62533087 -18.97182697 365.24433401 -15.86425781 361.26538086 C-12.67758579 355.46874681 -13.51023457 348.73522234 -13.609375 342.31640625 C-13.61684556 340.89152321 -13.62253464 339.46662982 -13.62652588 338.04173279 C-13.64171848 334.31132086 -13.68094342 330.58154278 -13.7253418 326.85137939 C-13.76643348 323.0370745 -13.78456637 319.22266609 -13.8046875 315.40820312 C-13.84744547 307.93851472 -13.91561736 300.46934654 -14 293 C-13.21826416 292.70810791 -12.43652832 292.41621582 -11.63110352 292.11547852 C-5.5053673 289.51842101 -1.27011937 283.14944804 1.4375 277.25 C5.20506454 267.64022084 4.71983473 258.57927365 1 249 C-4.51652788 239.28756758 -12.97050827 233.35009514 -23.5625 230.25 C-35.99968553 228.97439123 -46.62702268 232.01664471 -55.3125 241.25 Z " fill="#262626" transform="translate(240,25)"/>
<path d="M0 0 C4.84659077 0.59104765 8.60748167 1.97944157 13 4 C12.01 4.66 11.02 5.32 10 6 C10 5.34 10 4.68 10 4 C9.113125 4.33 8.22625 4.66 7.3125 5 C4.29076653 5.91222143 2.11626294 6.18330958 -1 6 C-0.67 4.02 -0.34 2.04 0 0 Z " fill="#323232" transform="translate(244,27)"/>
<path d="M0 0 C0 3.86695678 -1.41909971 6.5088452 -3 10 C-2.34 10 -1.68 10 -1 10 C-1.33 10.99 -1.66 11.98 -2 13 C-2 12.34 -2 11.68 -2 11 C-2.99 11.33 -3.98 11.66 -5 12 C-5.33 11.67 -5.66 11.34 -6 11 C-6.33 11.99 -6.66 12.98 -7 14 C-7.66 14 -8.32 14 -9 14 C-7.65070536 10.16336928 -5.92248975 7.34827431 -3.375 4.1875 C-2.42753906 3.00220703 -2.42753906 3.00220703 -1.4609375 1.79296875 C-0.97882813 1.20128906 -0.49671875 0.60960938 0 0 Z " fill="#404040" transform="translate(120,64)"/>
<path d="M0 0 C1.32 0.33 2.64 0.66 4 1 C2.72278474 5.99275057 0.82669043 8.57611908 -3 12 C-3 10.68 -3 9.36 -3 8 C-2.34 8 -1.68 8 -1 8 C-1.33 6.68 -1.66 5.36 -2 4 C-1.34 4 -0.68 4 0 4 C0 2.68 0 1.36 0 0 Z " fill="#3A3A3A" transform="translate(349,419)"/>
<path d="M0 0 C0.33 0 0.66 0 1 0 C1 1.98 1 3.96 1 6 C1.66 6.33 2.32 6.66 3 7 C3 7.66 3 8.32 3 9 C2.236875 9.28875 1.47375 9.5775 0.6875 9.875 C-2.15029308 10.96269013 -2.15029308 10.96269013 -5 13 C-4.39254603 8.14036821 -2.27241033 4.2594482 0 0 Z " fill="#3A3A3A" transform="translate(108,81)"/>
<path d="M0 0 C-1.98 0.33 -3.96 0.66 -6 1 C-6.33 1.99 -6.66 2.98 -7 4 C-7.721875 3.95875 -8.44375 3.9175 -9.1875 3.875 C-12.20729369 4.00921305 -14.26935729 4.75170619 -17 6 C-17.66 5.34 -18.32 4.68 -19 4 C-16.58732675 3.132758 -14.17095531 2.28103064 -11.75 1.4375 C-11.06808594 1.19064453 -10.38617188 0.94378906 -9.68359375 0.68945312 C-3.41657839 -1.47053761 -3.41657839 -1.47053761 0 0 Z " fill="#464646" transform="translate(184,26)"/>
<path d="M0 0 C0.99 0 1.98 0 3 0 C3.2475 0.78375 3.495 1.5675 3.75 2.375 C5.15389099 5.32317108 6.00675737 5.9024777 9 7 C7.02 7.99 7.02 7.99 5 9 C5 8.34 5 7.68 5 7 C2.525 6.01 2.525 6.01 0 5 C0 3.35 0 1.7 0 0 Z " fill="#3D3D3D" transform="translate(193,384)"/>
<path d="M0 0 C4.875 4.75 4.875 4.75 6 7 C3.69 6.67 1.38 6.34 -1 6 C-1.33 5.01 -1.66 4.02 -2 3 C-1.34 2.01 -0.68 1.02 0 0 Z " fill="#393939" transform="translate(181,307)"/>
<path d="M0 0 C0.66 0.33 1.32 0.66 2 1 C2 1.99 2 2.98 2 4 C1.46375 4.0825 0.9275 4.165 0.375 4.25 C-2.8352431 5.26376098 -5.26292392 7.07160549 -8 9 C-8.66 8.67 -9.32 8.34 -10 8 C-8.89764064 7.03958829 -7.79303376 6.08175593 -6.6875 5.125 C-5.76517578 4.32449219 -5.76517578 4.32449219 -4.82421875 3.5078125 C-3 2 -3 2 0 0 Z " fill="#444444" transform="translate(87,189)"/>
<path d="M0 0 C1.65 0.33 3.3 0.66 5 1 C3.02 3.97 3.02 3.97 1 7 C0.01 6.01 -0.98 5.02 -2 4 C-1.34 2.68 -0.68 1.36 0 0 Z " fill="#373737" transform="translate(178,268)"/>
<path d="M0 0 C2.375 0.875 2.375 0.875 4.375 2.875 C0.745 3.205 -2.885 3.535 -6.625 3.875 C-3.325 -0.15833333 -3.325 -0.15833333 0 0 Z " fill="#373737" transform="translate(201.625,253.125)"/>
<path d="M0 0 C0.66 1.32 1.32 2.64 2 4 C1.38125 4.2475 0.7625 4.495 0.125 4.75 C-2.35068687 6.20628639 -2.95125002 7.37812506 -4 10 C-4.66 10 -5.32 10 -6 10 C-4.6302836 6.00499382 -2.74277578 3.19990508 0 0 Z " fill="#4B4B4B" transform="translate(74,200)"/>
<path d="M0 0 C0 0.99 0 1.98 0 3 C0.66 3.33 1.32 3.66 2 4 C0.02 4.99 0.02 4.99 -2 6 C-2.99 5.01 -3.98 4.02 -5 3 C-2.25 0 -2.25 0 0 0 Z " fill="#303030" transform="translate(93,187)"/>
<path d="M0 0 C2.475 0.99 2.475 0.99 5 2 C5 2.99 5 3.98 5 5 C2.03 4.505 2.03 4.505 -1 4 C-0.67 2.68 -0.34 1.36 0 0 Z " fill="#363636" transform="translate(331,189)"/>
<path d="M0 0 C2.25245881 2.68841859 3.88213958 4.64641875 5 8 C4.34 8 3.68 8 3 8 C3 7.34 3 6.68 3 6 C1.68 5.67 0.36 5.34 -1 5 C-1 2 -1 2 0 0 Z " fill="#434343" transform="translate(308,76)"/>
<path d="M0 0 C0.33 0 0.66 0 1 0 C1.33 1.98 1.66 3.96 2 6 C0.02 6.33 -1.96 6.66 -4 7 C-3.67 5.35 -3.34 3.7 -3 2 C-2.67 2.66 -2.34 3.32 -2 4 C-1.34 4 -0.68 4 0 4 C0 2.68 0 1.36 0 0 Z " fill="#373737" transform="translate(245,296)"/>
<path d="M0 0 C0.33 0.66 0.66 1.32 1 2 C-0.4375 4.625 -0.4375 4.625 -2 7 C-3.32 6.67 -4.64 6.34 -6 6 C-4.02 4.02 -2.04 2.04 0 0 Z " fill="#474747" transform="translate(130,53)"/>
<path d="M0 0 C4.875 2.75 4.875 2.75 6 5 C5.01 5.33 4.02 5.66 3 6 C2.34 5.34 1.68 4.68 1 4 C-1.06874034 3.3574765 -1.06874034 3.3574765 -3 3 C-2.01 2.67 -1.02 2.34 0 2 C0 1.34 0 0.68 0 0 Z " fill="#424242" transform="translate(278,44)"/>
<path d="M0 0 C0.99 0.99 1.98 1.98 3 3 C1.68 3.99 0.36 4.98 -1 6 C-1.625 4.125 -1.625 4.125 -2 2 C-1.34 1.34 -0.68 0.68 0 0 Z " fill="#3C3C3C" transform="translate(163,87)"/>
<path d="M0 0 C2.97 0.99 5.94 1.98 9 3 C8.01 3.66 7.02 4.32 6 5 C6 4.34 6 3.68 6 3 C5.01 3.33 4.02 3.66 3 4 C2.01 3.34 1.02 2.68 0 2 C0 1.34 0 0.68 0 0 Z " fill="#505050" transform="translate(248,28)"/>
</svg>
