<?xml version="1.0" encoding="UTF-8"?>
<svg version="1.1" xmlns="http://www.w3.org/2000/svg" width="181" height="223">
<path d="M0 0 C12.66561696 -0.61066367 25.8455221 4.74486342 35.6484375 12.5 C45.72660863 22.01827274 52.39105675 34.90503668 52.83474731 48.87545776 C52.86556487 52.07894797 52.86237757 55.28077112 52.84765625 58.484375 C52.8462413 59.65086075 52.84482635 60.8173465 52.84336853 62.0191803 C52.83779206 65.72765722 52.82524384 69.43607272 52.8125 73.14453125 C52.80748196 75.66601475 52.80291959 78.1874992 52.79882812 80.70898438 C52.78783033 86.87502079 52.77111565 93.04102163 52.75 99.20703125 C53.35328125 99.18382813 53.9565625 99.160625 54.578125 99.13671875 C55.37734375 99.11867188 56.1765625 99.100625 57 99.08203125 C58.18335938 99.04722656 58.18335938 99.04722656 59.390625 99.01171875 C61.99614317 99.22740734 63.54986977 99.81491345 65.75 101.20703125 C67.33122899 104.36948922 66.92411642 107.77513093 66.94287109 111.24926758 C66.95513733 112.49586906 66.95513733 112.49586906 66.96765137 113.76765442 C66.99251468 116.52478307 67.00902345 119.28186022 67.0234375 122.0390625 C67.02876118 122.97978796 67.03408485 123.92051342 67.03956985 124.88974571 C67.06630508 129.86862753 67.08567908 134.84748424 67.10009766 139.82641602 C67.1167496 144.97156333 67.16153082 150.11607062 67.2124691 155.26097584 C67.24610863 159.21494796 67.25767145 163.16876753 67.26332474 167.12286949 C67.27004597 169.01951681 67.28529066 170.9161538 67.30921555 172.81266212 C67.34080091 175.46784402 67.34091422 178.12129124 67.33349609 180.77661133 C67.34990143 181.55965637 67.36630676 182.34270142 67.38320923 183.1494751 C67.33784186 187.11766423 66.91445278 188.99381859 64.46353149 192.1714325 C60.64237773 195.03793169 57.67064313 195.33065338 52.9747467 195.34747314 C52.01726028 195.35318329 51.05977386 195.35889343 50.07327271 195.36477661 C48.50765091 195.3664534 48.50765091 195.3664534 46.91040039 195.36816406 C45.25371086 195.37561142 45.25371086 195.37561142 43.56355286 195.38320923 C39.90824767 195.39782031 36.25298585 195.40463032 32.59765625 195.41015625 C30.05944314 195.41590755 27.52123005 195.42166528 24.98301697 195.4274292 C20.34107605 195.43659286 15.69914816 195.44289509 11.05720049 195.44592595 C4.2297124 195.4504088 -2.59757571 195.46797177 -9.42500299 195.49692655 C-15.34420771 195.5211565 -21.26336265 195.52887059 -27.18261909 195.5306015 C-29.69884901 195.53363167 -32.215078 195.5416724 -34.73127556 195.55478668 C-38.24800735 195.57181075 -41.76424976 195.56997582 -45.28100586 195.56347656 C-46.32272949 195.57269135 -47.36445312 195.58190613 -48.43774414 195.59140015 C-57.50996955 195.53878713 -57.50996955 195.53878713 -61.25 192.20703125 C-63.99477834 188.64743924 -63.53155219 184.40566045 -63.50878906 180.10546875 C-63.51404602 178.88528046 -63.51404602 178.88528046 -63.51940918 177.64044189 C-63.52820444 174.95421795 -63.52238514 172.26825783 -63.515625 169.58203125 C-63.51697228 167.71402943 -63.51891335 165.84602796 -63.52142334 163.97802734 C-63.52437161 160.06409363 -63.52008647 156.15025123 -63.51074219 152.23632812 C-63.49934784 147.21915416 -63.5059089 142.20219419 -63.51788712 137.18502808 C-63.5251137 133.32802722 -63.5228141 129.47107709 -63.51763153 125.61407471 C-63.51629725 123.76409886 -63.51793501 121.91411842 -63.52259064 120.06414795 C-63.52766895 117.47883905 -63.51992728 114.89387683 -63.50878906 112.30859375 C-63.51283752 111.543797 -63.51688599 110.77900024 -63.52105713 109.99102783 C-63.46557269 103.04021471 -63.46557269 103.04021471 -61.25 100.20703125 C-53.00095772 96.22778919 -40.83368253 97.95901853 -31.8984375 98.01171875 C-30.02943067 98.01545476 -28.16042186 98.01829895 -26.29141235 98.02029419 C-21.40226718 98.02788438 -16.51324321 98.04749262 -11.62414551 98.06970215 C-6.62314493 98.09026062 -1.62212452 98.09931718 3.37890625 98.109375 C13.16932372 98.13074337 22.95965173 98.16482281 32.75 98.20703125 C32.7081691 90.69930869 32.63568463 83.19231774 32.54248047 75.68505859 C32.51435829 73.13434461 32.49310051 70.5835449 32.47900391 68.03271484 C32.45745382 64.35339748 32.41073865 60.67510144 32.359375 56.99609375 C32.35814636 55.86652252 32.35691772 54.73695129 32.35565186 53.57315063 C32.17554605 43.70532103 29.9377778 35.23145046 22.75 28.20703125 C14.21532078 21.8634498 6.28941932 20.38659741 -4.25 21.20703125 C-9.9417628 22.3487172 -13.86718438 24.35546601 -18.25 28.20703125 C-18.91 28.20703125 -19.57 28.20703125 -20.25 28.20703125 C-20.4975 28.74328125 -20.745 29.27953125 -21 29.83203125 C-22.25 32.20703125 -22.25 32.20703125 -24.25 35.08203125 C-27.83039389 40.6763967 -28.53254209 45.70173611 -28.5234375 52.23828125 C-28.54371912 53.78646566 -28.56456976 55.3346427 -28.5859375 56.8828125 C-28.60853912 59.29872919 -28.6250177 61.71435344 -28.63085938 64.13037109 C-28.64041395 66.47936444 -28.67420959 68.82707706 -28.7109375 71.17578125 C-28.70589203 71.89157349 -28.70084656 72.60736572 -28.69564819 73.34484863 C-28.79423027 78.4058446 -30.06489237 81.3072637 -33.25 85.20703125 C-35.50984109 86.3369518 -37.04726487 86.50503081 -39.5625 86.64453125 C-40.32175781 86.70511719 -41.08101562 86.76570313 -41.86328125 86.828125 C-45.51821931 85.87700364 -47.39527037 83.34778157 -49.25 80.20703125 C-49.71853305 77.31662854 -49.90925992 75.04022476 -49.84375 72.16796875 C-49.84379028 71.4058609 -49.84383057 70.64375305 -49.84387207 69.85855103 C-49.83853091 68.24985488 -49.821008 66.64115816 -49.79199219 65.03271484 C-49.75047084 62.60950949 -49.75090373 60.18912322 -49.7578125 57.765625 C-49.69095324 41.05896503 -46.3472492 27.65690663 -34.8125 14.95703125 C-25.12037181 5.79678814 -13.1062815 1.20595993 0 0 Z " fill="#FEEC4F" transform="translate(90.25,8.79296875)"/>
<path d="M0 0 C12.66561696 -0.61066367 25.8455221 4.74486342 35.6484375 12.5 C45.83241684 22.11820271 52.24137481 34.90359335 52.87356567 48.95309448 C52.96127282 52.2759806 53.01880493 55.59817294 53.06640625 58.921875 C53.08718735 60.13275284 53.10796844 61.34363068 53.12937927 62.59120178 C53.19453024 66.44225635 53.25359914 70.29337652 53.3125 74.14453125 C53.355718 76.76237646 53.39933332 79.38021513 53.44335938 81.99804688 C53.55017619 88.4009732 53.65200535 94.80396415 53.75 101.20703125 C51.47108967 102.34648641 50.18217896 102.33597339 47.65234375 102.33984375 C46.45061523 102.34177734 46.45061523 102.34177734 45.22460938 102.34375 C44.38736328 102.33988281 43.55011719 102.33601563 42.6875 102.33203125 C41.84638672 102.33589844 41.00527344 102.33976562 40.13867188 102.34375 C33.87662682 102.33365807 33.87662682 102.33365807 32.75 101.20703125 C32.64773137 99.48032553 32.61429427 97.74949612 32.6081543 96.01977539 C32.59760262 94.35652977 32.59760262 94.35652977 32.58683777 92.65968323 C32.58267349 91.44940964 32.57850922 90.23913605 32.57421875 88.9921875 C32.55100376 86.44335127 32.52688577 83.89452313 32.50195312 81.34570312 C32.46568968 77.31697713 32.4358821 73.28839866 32.42407227 69.25952148 C32.40852185 65.37837649 32.36824339 61.49810074 32.32421875 57.6171875 C32.32612717 56.42513199 32.32803558 55.23307648 32.33000183 54.00489807 C32.18409646 43.94339731 30.09177453 35.38194727 22.75 28.20703125 C14.21532078 21.8634498 6.28941932 20.38659741 -4.25 21.20703125 C-9.9417628 22.3487172 -13.86718438 24.35546601 -18.25 28.20703125 C-18.91 28.20703125 -19.57 28.20703125 -20.25 28.20703125 C-20.4975 28.74328125 -20.745 29.27953125 -21 29.83203125 C-22.25 32.20703125 -22.25 32.20703125 -24.25 35.08203125 C-27.83039389 40.6763967 -28.53254209 45.70173611 -28.5234375 52.23828125 C-28.54371912 53.78646566 -28.56456976 55.3346427 -28.5859375 56.8828125 C-28.60853912 59.29872919 -28.6250177 61.71435344 -28.63085938 64.13037109 C-28.64041395 66.47936444 -28.67420959 68.82707706 -28.7109375 71.17578125 C-28.70589203 71.89157349 -28.70084656 72.60736572 -28.69564819 73.34484863 C-28.79423027 78.4058446 -30.06489237 81.3072637 -33.25 85.20703125 C-35.50984109 86.3369518 -37.04726487 86.50503081 -39.5625 86.64453125 C-40.32175781 86.70511719 -41.08101562 86.76570313 -41.86328125 86.828125 C-45.51821931 85.87700364 -47.39527037 83.34778157 -49.25 80.20703125 C-49.71853305 77.31662854 -49.90925992 75.04022476 -49.84375 72.16796875 C-49.84379028 71.4058609 -49.84383057 70.64375305 -49.84387207 69.85855103 C-49.83853091 68.24985488 -49.821008 66.64115816 -49.79199219 65.03271484 C-49.75047084 62.60950949 -49.75090373 60.18912322 -49.7578125 57.765625 C-49.69095324 41.05896503 -46.3472492 27.65690663 -34.8125 14.95703125 C-25.12037181 5.79678814 -13.1062815 1.20595993 0 0 Z " fill="#5CE1FC" transform="translate(90.25,8.79296875)"/>
<path d="M0 0 C1.86900683 0.00373601 3.73801564 0.0065802 5.60702515 0.00857544 C10.49617032 0.01616563 15.38519429 0.03577387 20.27429199 0.0579834 C25.27529257 0.07854187 30.27631298 0.08759843 35.27734375 0.09765625 C45.06776122 0.11902462 54.85808923 0.15310406 64.6484375 0.1953125 C65.1434375 1.6803125 65.1434375 1.6803125 65.6484375 3.1953125 C71.5884375 3.5253125 77.5284375 3.8553125 83.6484375 4.1953125 C83.6484375 4.5253125 83.6484375 4.8553125 83.6484375 5.1953125 C77.10552086 5.34018272 70.5625477 5.4822693 64.01953125 5.62255859 C61.80076783 5.67044326 59.5820173 5.71892971 57.36328125 5.76806641 C50.1252789 5.92811249 42.88721457 6.07484972 35.6484375 6.1953125 C34.90843506 6.20771973 34.16843262 6.22012695 33.40600586 6.23291016 C20.30678926 6.42217274 7.23179276 5.76225155 -5.8515625 5.1953125 C-8.13930998 5.09865168 -10.42707035 5.00229532 -12.71484375 4.90625 C-18.26056991 4.67277597 -23.80612594 4.43556196 -29.3515625 4.1953125 C-29.2673131 15.63466099 -29.17249036 27.0738677 -29.06403542 38.51301384 C-29.0140146 43.82424159 -28.96768523 49.13544889 -28.9296875 54.44677734 C-28.8929076 59.56913621 -28.84656788 64.6913263 -28.79349899 69.81354141 C-28.77491613 71.77120132 -28.75982269 73.72889746 -28.74821854 75.68661118 C-28.73142243 78.42129686 -28.7024041 81.15559267 -28.67041016 83.89013672 C-28.66824997 84.70581116 -28.66608978 85.5214856 -28.66386414 86.36187744 C-28.76833673 90.74662574 -28.76833673 90.74662574 -26.3515625 94.1953125 C-24.17833229 94.50930922 -24.17833229 94.50930922 -21.63131714 94.4737854 C-20.63569763 94.48494888 -19.64007813 94.49611237 -18.61428833 94.50761414 C-17.51809174 94.50977432 -16.42189514 94.51193451 -15.29248047 94.51416016 C-13.5656604 94.52922859 -13.5656604 94.52922859 -11.80395508 94.54460144 C-7.98389199 94.575589 -4.16389945 94.59251186 -0.34375 94.609375 C2.29898696 94.62807411 4.94171787 94.64764656 7.58444214 94.6680603 C13.83880097 94.71489402 20.09317695 94.7516158 26.3476218 94.78473318 C33.46729901 94.82292221 40.58688429 94.87234073 47.70648408 94.92271733 C62.35373115 95.02610542 77.00104409 95.11534339 91.6484375 95.1953125 C89.18337026 97.66037974 88.50399604 97.4476471 85.11369324 97.45600891 C84.15895615 97.46309372 83.20421906 97.47017853 82.22055054 97.47747803 C81.16961212 97.47500061 80.11867371 97.47252319 79.03588867 97.4699707 C77.93172104 97.47508163 76.82755341 97.48019257 75.68992615 97.48545837 C72.02369837 97.49940843 68.35765749 97.49839325 64.69140625 97.49609375 C62.15033396 97.49997826 59.60926232 97.50431241 57.06819153 97.50907898 C51.73415763 97.51655325 46.40019278 97.51637924 41.06616211 97.51098633 C34.90406276 97.50495182 28.74219204 97.51724172 22.58013171 97.5385564 C16.65130767 97.55830925 10.72255436 97.56134437 4.79369545 97.55782127 C2.271889 97.5583353 -0.24992104 97.56358813 -2.77170753 97.57363319 C-6.2982612 97.58595353 -9.82428505 97.57923138 -13.35083008 97.56762695 C-14.3956958 97.57527069 -15.44056152 97.58291443 -16.51708984 97.59078979 C-25.61606156 97.5245281 -25.61606156 97.5245281 -29.3515625 94.1953125 C-32.09634084 90.63572049 -31.63311469 86.3939417 -31.61035156 82.09375 C-31.61560852 80.87356171 -31.61560852 80.87356171 -31.62097168 79.62872314 C-31.62976694 76.9424992 -31.62394764 74.25653908 -31.6171875 71.5703125 C-31.61853478 69.70231068 -31.62047585 67.83430921 -31.62298584 65.96630859 C-31.62593411 62.05237488 -31.62164897 58.13853248 -31.61230469 54.22460938 C-31.60091034 49.20743541 -31.6074714 44.19047544 -31.61944962 39.17330933 C-31.6266762 35.31630847 -31.6243766 31.45935834 -31.61919403 27.60235596 C-31.61785975 25.75238011 -31.61949751 23.90239967 -31.62415314 22.0524292 C-31.62923145 19.4671203 -31.62148978 16.88215808 -31.61035156 14.296875 C-31.61440002 13.53207825 -31.61844849 12.76728149 -31.62261963 11.97930908 C-31.56713519 5.02849596 -31.56713519 5.02849596 -29.3515625 2.1953125 C-21.10252022 -1.78392956 -8.93524503 -0.05270022 0 0 Z " fill="#E9D871" transform="translate(58.3515625,106.8046875)"/>
<path d="M0 0 C1.4375 1.5 1.4375 1.5 1.4375 3.5 C2.200625 3.396875 2.96375 3.29375 3.75 3.1875 C6.4375 3.5 6.4375 3.5 8.3125 5.75 C9.50317925 8.66054927 9.59845535 9.65038233 8.4375 12.5 C7.4475 11.1696875 7.4475 11.1696875 6.4375 9.8125 C1.36184095 3.73033632 -5.78669653 -0.03859866 -13.67578125 -0.80078125 C-23.20736535 -0.83569548 -30.24594269 0.07029812 -37.5625 6.5 C-38.2225 6.5 -38.8825 6.5 -39.5625 6.5 C-39.81 7.03625 -40.0575 7.5725 -40.3125 8.125 C-41.5625 10.5 -41.5625 10.5 -43.5625 13.375 C-47.14289389 18.96936545 -47.84504209 23.99470486 -47.8359375 30.53125 C-47.85621912 32.07943441 -47.87706976 33.62761145 -47.8984375 35.17578125 C-47.92103912 37.59169794 -47.9375177 40.00732219 -47.94335938 42.42333984 C-47.95291395 44.77233319 -47.98670959 47.12004581 -48.0234375 49.46875 C-48.01839203 50.18454224 -48.01334656 50.90033447 -48.00814819 51.63781738 C-48.10673027 56.69881335 -49.37739237 59.60023245 -52.5625 63.5 C-54.82234109 64.62992055 -56.35976487 64.79799956 -58.875 64.9375 C-59.63425781 64.99808594 -60.39351562 65.05867188 -61.17578125 65.12109375 C-64.83071931 64.16997239 -66.70777037 61.64075032 -68.5625 58.5 C-69.03103305 55.60959729 -69.22175992 53.33319351 -69.15625 50.4609375 C-69.15629028 49.69882965 -69.15633057 48.9367218 -69.15637207 48.15151978 C-69.15103091 46.54282363 -69.133508 44.93412691 -69.10449219 43.32568359 C-69.06297084 40.90247824 -69.06340373 38.48209197 -69.0703125 36.05859375 C-69.03187978 27.14975159 -68.32371953 19.05598071 -65.5625 10.5 C-65.2325 10.5 -64.9025 10.5 -64.5625 10.5 C-64.6690818 11.41735428 -64.6690818 11.41735428 -64.77781677 12.35324097 C-65.4229098 18.2639849 -65.69842612 24.06511814 -65.66015625 30.0078125 C-65.6587413 30.85930878 -65.65732635 31.71080505 -65.65586853 32.58810425 C-65.65033919 35.26710759 -65.63780074 37.94602257 -65.625 40.625 C-65.61997584 42.45833211 -65.61541455 44.29166556 -65.61132812 46.125 C-65.60039306 50.58336659 -65.58317872 55.04166839 -65.5625 59.5 C-61.80820964 60.53139845 -58.466813 60.71296253 -54.5625 60.5 C-53.5725 59.84 -52.5825 59.18 -51.5625 58.5 C-51.27330857 55.77134203 -51.16959373 53.2574039 -51.19140625 50.52734375 C-51.1740045 48.88866999 -51.15642036 47.24999816 -51.13867188 45.61132812 C-51.12865373 43.03324505 -51.12498812 40.45529887 -51.12670898 37.87719727 C-51.10107973 20.1605451 -51.10107973 20.1605451 -46.5625 12.5 C-45.9025 12.5 -45.2425 12.5 -44.5625 12.5 C-44.48 11.55125 -44.3975 10.6025 -44.3125 9.625 C-44.065 8.59375 -43.8175 7.5625 -43.5625 6.5 C-41.5625 5.375 -41.5625 5.375 -39.5625 4.5 C-38.75721111 2.44999129 -38.75721111 2.44999129 -38.5625 0.5 C-37.7271875 0.30083984 -37.7271875 0.30083984 -36.875 0.09765625 C-35.30057782 -0.30924678 -33.73743805 -0.76190289 -32.1875 -1.25390625 C-22.00237498 -4.39128851 -9.59150675 -5.61454053 0 0 Z " fill="#7DD3E9" transform="translate(109.5625,30.5)"/>
<path d="M0 0 C0.99 0.495 0.99 0.495 2 1 C2 1.66 2 2.32 2 3 C2.66 3 3.32 3 4 3 C6.32728206 8.55632786 6.31171453 13.70134819 6.34375 19.62109375 C6.3583728 20.63921646 6.37299561 21.65733917 6.38806152 22.70631409 C6.43441436 25.9500032 6.46869551 29.19363288 6.5 32.4375 C6.54127206 36.70725328 6.59498669 40.97658566 6.65625 45.24609375 C6.6615271 46.21921005 6.6668042 47.19232635 6.67224121 48.19493103 C6.74963598 53.50916867 7.25925453 57.9692977 9 63 C11.64 63 14.28 63 17 63 C17 63.66 17 64.32 17 65 C18.65 65 20.3 65 22 65 C22.33 47.51 22.66 30.02 23 12 C23.33 12 23.66 12 24 12 C24.33 30.15 24.66 48.3 25 67 C22.72108967 68.13945516 21.43217896 68.12894214 18.90234375 68.1328125 C17.70061523 68.13474609 17.70061523 68.13474609 16.47460938 68.13671875 C15.21874023 68.13091797 15.21874023 68.13091797 13.9375 68.125 C13.09638672 68.12886719 12.25527344 68.13273437 11.38867188 68.13671875 C5.12662682 68.12662682 5.12662682 68.12662682 4 67 C3.89250044 65.27345908 3.85374845 63.54259046 3.84228516 61.81274414 C3.83202301 60.70391373 3.82176086 59.59508331 3.81118774 58.45265198 C3.80388641 57.24237839 3.79658508 56.0321048 3.7890625 54.78515625 C3.76097269 52.23632194 3.73230811 49.6874939 3.703125 47.13867188 C3.66084589 43.10998022 3.62409751 39.08132469 3.59863281 35.05249023 C3.57088214 31.17146277 3.52498371 27.29097374 3.4765625 23.41015625 C3.47330963 22.21810074 3.47005676 21.02604523 3.46670532 19.79786682 C3.36352514 12.71509634 2.47835896 6.65052933 0 0 Z " fill="#7ED2E2" transform="translate(119,43)"/>
<path d="M0 0 C0.82032211 -0.00014603 1.64064423 -0.00029205 2.48582458 -0.0004425 C5.17490358 0.00024955 7.86391175 0.0080086 10.55297852 0.01586914 C12.42627423 0.01773583 14.29957044 0.01915855 16.17286682 0.02015686 C21.08667363 0.02396224 26.00045055 0.03377551 30.91424561 0.04486084 C35.93509517 0.05511763 40.9559496 0.0596636 45.97680664 0.06469727 C55.81601243 0.07539965 65.6551961 0.09245217 75.49438477 0.11352539 C75.98938477 2.09352539 75.98938477 2.09352539 76.49438477 4.11352539 C75.83517029 4.10099731 75.17595581 4.08846924 74.49676514 4.07556152 C66.07939709 3.91640619 57.66193497 3.7627122 49.24438477 3.61352539 C48.57444363 3.60164814 47.90450249 3.58977089 47.2142601 3.57753372 C25.30631282 3.19111956 3.40584531 2.96671115 -18.50561523 3.11352539 C-12.999049 -0.55751876 -6.41820753 -0.03035036 0 0 Z " fill="#DDD28D" transform="translate(47.505615234375,106.886474609375)"/>
<path d="M0 0 C1.41623216 -0.05447047 2.83308191 -0.09300508 4.25 -0.125 C5.03890625 -0.14820312 5.8278125 -0.17140625 6.640625 -0.1953125 C9.24614317 0.02037609 10.79986977 0.6078822 13 2 C14.58122899 5.16245797 14.17411642 8.56809968 14.19287109 12.04223633 C14.20104858 12.87330399 14.20922607 13.70437164 14.21765137 14.56062317 C14.24251468 17.31775182 14.25902345 20.07482897 14.2734375 22.83203125 C14.27876118 23.77275671 14.28408485 24.71348217 14.28956985 25.68271446 C14.31630508 30.66159628 14.33567908 35.64045299 14.35009766 40.61938477 C14.3667496 45.76453208 14.41153082 50.90903937 14.4624691 56.05394459 C14.49610863 60.00791671 14.50767145 63.96173628 14.51332474 67.91583824 C14.52004597 69.81248556 14.53529066 71.70912255 14.55921555 73.60563087 C14.59080091 76.26081277 14.59091422 78.91425999 14.58349609 81.56958008 C14.59990143 82.35262512 14.61630676 83.13567017 14.63320923 83.94244385 C14.58667067 88.01307497 14.15893605 89.80050175 11.58853149 93.02690125 C9 95 9 95 7 95 C7 94.34 7 93.68 7 93 C7.99 93 8.98 93 10 93 C10 92.34 10 91.68 10 91 C10.66 91 11.32 91 12 91 C11.67 61.96 11.34 32.92 11 3 C7.04 3 3.08 3 -1 3 C-0.67 2.01 -0.34 1.02 0 0 Z " fill="#F3E790" transform="translate(143,108)"/>
<path d="M0 0 C1.4375 1.5 1.4375 1.5 1.4375 3.5 C2.200625 3.396875 2.96375 3.29375 3.75 3.1875 C6.4375 3.5 6.4375 3.5 8.3125 5.75 C9.50317925 8.66054927 9.59845535 9.65038233 8.4375 12.5 C7.7775 11.613125 7.1175 10.72625 6.4375 9.8125 C1.36184095 3.73033632 -5.78669653 -0.03859866 -13.67578125 -0.80078125 C-23.20736535 -0.83569548 -30.24594269 0.07029812 -37.5625 6.5 C-38.2225 6.5 -38.8825 6.5 -39.5625 6.5 C-39.93375 7.304375 -39.93375 7.304375 -40.3125 8.125 C-41.5625 10.5 -41.5625 10.5 -43.5625 13.375 C-45.49612349 16.39628671 -46.58189272 19.06787452 -47.5625 22.5 C-47.8925 22.5 -48.2225 22.5 -48.5625 22.5 C-48.74192163 18.55272412 -48.65600689 15.9019487 -46.5625 12.5 C-45.9025 12.5 -45.2425 12.5 -44.5625 12.5 C-44.48 11.55125 -44.3975 10.6025 -44.3125 9.625 C-44.065 8.59375 -43.8175 7.5625 -43.5625 6.5 C-41.5625 5.375 -41.5625 5.375 -39.5625 4.5 C-38.75721111 2.44999129 -38.75721111 2.44999129 -38.5625 0.5 C-38.005625 0.36722656 -37.44875 0.23445313 -36.875 0.09765625 C-35.30057782 -0.30924678 -33.73743805 -0.76190289 -32.1875 -1.25390625 C-22.00237498 -4.39128851 -9.59150675 -5.61454053 0 0 Z " fill="#6DC4DC" transform="translate(109.5625,30.5)"/>
<path d="M0 0 C1.60938465 2.41407698 2.65490738 4.34044437 3.6875 7 C3.95949219 7.680625 4.23148438 8.36125 4.51171875 9.0625 C5 11 5 11 4 14 C4 13.34 4 12.68 4 12 C3.34 12 2.68 12 2 12 C2.16298584 12.86963379 2.32597168 13.73926758 2.49389648 14.63525391 C2.96574117 17.77223578 3.11468255 20.66904654 3.09765625 23.8359375 C3.09443359 24.89941406 3.09121094 25.96289062 3.08789062 27.05859375 C3.07951172 28.15300781 3.07113281 29.24742188 3.0625 30.375 C3.05798828 31.49261719 3.05347656 32.61023438 3.04882812 33.76171875 C3.03709244 36.50786804 3.02067363 39.25390586 3 42 C2.01 42.495 2.01 42.495 1 43 C-0.37402915 35.20938814 -1.26222824 27.51318542 -1.66894531 19.62231445 C-1.85291656 16.10579859 -2.13767783 12.66544486 -2.6875 9.1875 C-3 6 -3 6 -1 3 C-0.67 3.33 -0.34 3.66 0 4 C0 2.68 0 1.36 0 0 Z " fill="#6DEAFE" transform="translate(137,37)"/>
<path d="M0 0 C-2 1 -2 1 -4.79296875 0.07421875 C-5.91316406 -0.38339844 -7.03335938 -0.84101563 -8.1875 -1.3125 C-9.36828125 -1.7765625 -10.5490625 -2.240625 -11.765625 -2.71875 C-12.83296875 -3.1415625 -13.9003125 -3.564375 -15 -4 C-23.37453374 -7.19754925 -34.32864008 -7.16783998 -43 -5 C-45.60764847 -3.7308628 -48.14842523 -2.39727569 -50.66796875 -0.9609375 C-53.31146787 0.12834354 -54.37496941 0.00173581 -57 -1 C-36.48930653 -11.36947619 -20.20811435 -11.0714669 0 0 Z " fill="#75D6ED" transform="translate(121,18)"/>
<path d="M0 0 C1.4540625 0.0309375 1.4540625 0.0309375 2.9375 0.0625 C-0.08346567 2.55497522 -2.94173005 3.94206332 -6.625 5.25 C-7.57503906 5.59417969 -8.52507812 5.93835938 -9.50390625 6.29296875 C-12.0625 7.0625 -12.0625 7.0625 -15.0625 7.0625 C-15.0625 7.7225 -15.0625 8.3825 -15.0625 9.0625 C-15.7225 9.0625 -16.3825 9.0625 -17.0625 9.0625 C-17.0625 9.7225 -17.0625 10.3825 -17.0625 11.0625 C-17.7225 11.0625 -18.3825 11.0625 -19.0625 11.0625 C-19.0625 11.7225 -19.0625 12.3825 -19.0625 13.0625 C-21.0425 13.7225 -23.0225 14.3825 -25.0625 15.0625 C-24.11132866 13.8899869 -23.15132991 12.72462985 -22.1875 11.5625 C-21.65382812 10.9128125 -21.12015625 10.263125 -20.5703125 9.59375 C-19.82394531 8.83578125 -19.82394531 8.83578125 -19.0625 8.0625 C-18.4025 8.0625 -17.7425 8.0625 -17.0625 8.0625 C-17.0625 7.4025 -17.0625 6.7425 -17.0625 6.0625 C-16.13566406 5.71316406 -15.20882812 5.36382812 -14.25390625 5.00390625 C-13.05636719 4.54886719 -11.85882813 4.09382813 -10.625 3.625 C-9.43003906 3.17253906 -8.23507813 2.72007813 -7.00390625 2.25390625 C-1.51571308 0.03093292 -1.51571308 0.03093292 0 0 Z " fill="#4CDDF9" transform="translate(81.0625,11.9375)"/>
<path d="M0 0 C0.33 0 0.66 0 1 0 C1.59932334 7.07201547 1.59932334 7.07201547 -0.9375 11 C-5.02282747 13.66796896 -8.24415066 13.96534 -13 13 C-15.625 11.25 -15.625 11.25 -17 9 C-16.75 6.75 -16.75 6.75 -16 5 C-15.67 5.99 -15.34 6.98 -15 8 C-11.51273652 9.4753807 -7.719499 9.20288176 -4 9 C-3.01 8.34 -2.02 7.68 -1 7 C-0.26393501 3.43230448 -0.26393501 3.43230448 0 0 Z " fill="#6DC4D1" transform="translate(59,82)"/>
<path d="M0 0 C1.41623216 -0.05447047 2.83308191 -0.09300508 4.25 -0.125 C5.03890625 -0.14820312 5.8278125 -0.17140625 6.640625 -0.1953125 C9 0 9 0 13 2 C13 12.89 13 23.78 13 35 C12.67 35 12.34 35 12 35 C11.67 24.44 11.34 13.88 11 3 C7.04 3 3.08 3 -1 3 C-0.67 2.01 -0.34 1.02 0 0 Z " fill="#F2E268" transform="translate(143,108)"/>
<path d="M0 0 C0.33 0 0.66 0 1 0 C1.09885708 4.92954646 1.17146125 9.85851647 1.21972656 14.78881836 C1.23984565 16.46600392 1.26714451 18.14311931 1.30175781 19.82006836 C1.35026569 22.230482 1.37296464 24.63996872 1.390625 27.05078125 C1.41127014 27.80087967 1.43191528 28.55097809 1.45318604 29.32380676 C1.45541634 34.49495496 1.45541634 34.49495496 -0.79003906 36.98510742 C-3.90589022 38.41601698 -6.62105766 38.19493898 -10 38 C-6.45040296 34.85997185 -5.19608198 34.86601366 0 34 C0 22.78 0 11.56 0 0 Z " fill="#56D8F8" transform="translate(58,54)"/>
<path d="M0 0 C0.33 0.66 0.66 1.32 1 2 C0.01 2 -0.98 2 -2 2 C-2 7.28 -2 12.56 -2 18 C-2.66 18.33 -3.32 18.66 -4 19 C-4 13.72 -4 8.44 -4 3 C-6.64 2.67 -9.28 2.34 -12 2 C-8.09971775 -0.60018816 -4.52565431 -0.15085514 0 0 Z " fill="#FCED60" transform="translate(154,110)"/>
<path d="M0 0 C0.66 0.33 1.32 0.66 2 1 C1.67 2.65 1.34 4.3 1 6 C0.34 6 -0.32 6 -1 6 C-1.2475 6.53625 -1.495 7.0725 -1.75 7.625 C-3 10 -3 10 -5 12.875 C-6.93362349 15.89628671 -8.01939272 18.56787452 -9 22 C-9.33 22 -9.66 22 -10 22 C-10.17942163 18.05272412 -10.09350689 15.4019487 -8 12 C-7.34 12 -6.68 12 -6 12 C-5.9175 11.05125 -5.835 10.1025 -5.75 9.125 C-5.5025 8.09375 -5.255 7.0625 -5 6 C-3 4.875 -3 4.875 -1 4 C-0.19471111 1.94999129 -0.19471111 1.94999129 0 0 Z " fill="#65CEED" transform="translate(71,31)"/>
<path d="M0 0 C0.33 0.66 0.66 1.32 1 2 C0.48050781 2.4125 -0.03898437 2.825 -0.57421875 3.25 C-5.00503908 6.91914512 -8.17527527 10.31333066 -10.89453125 15.3984375 C-12 17 -12 17 -15 18 C-15.33 19.98 -15.66 21.96 -16 24 C-16.66 23.67 -17.32 23.34 -18 23 C-15.95353936 14.13200388 -8.6480895 6.89382077 -2 1 C-1.34 0.67 -0.68 0.34 0 0 Z " fill="#69D7EC" transform="translate(63,18)"/>
<path d="M0 0 C3.55060608 0.60867533 6.83461241 1.24145134 10 3 C10.8125 5.625 10.8125 5.625 11 8 C11.99 8 12.98 8 14 8 C14 8.66 14 9.32 14 10 C14.61875 10.2475 15.2375 10.495 15.875 10.75 C18.35068687 12.20628639 18.95125002 13.37812506 20 16 C16.125 14.25 16.125 14.25 15 12 C13.35636866 11.27840576 11.68949614 10.60648579 10 10 C10 9.01 10 8.02 10 7 C8.68 6.34 7.36 5.68 6 5 C6 4.34 6 3.68 6 3 C5.38125 2.87625 4.7625 2.7525 4.125 2.625 C2 2 2 2 0 0 Z " fill="#4DDFF8" transform="translate(112,16)"/>
<path d="M0 0 C0.99 0.495 0.99 0.495 2 1 C2 1.66 2 2.32 2 3 C2.66 3 3.32 3 4 3 C5.64802525 7.32820473 6.23933471 10.86985584 6.1953125 15.4921875 C6.18886719 16.69101562 6.18242188 17.88984375 6.17578125 19.125 C6.15902344 20.3625 6.14226562 21.6 6.125 22.875 C6.11597656 24.13570312 6.10695313 25.39640625 6.09765625 26.6953125 C6.07415808 29.7970704 6.04130334 32.89843652 6 36 C5.67 36 5.34 36 5 36 C4.98541748 35.38592285 4.97083496 34.7718457 4.95581055 34.13916016 C4.88038055 31.30054015 4.78404224 28.46297742 4.6875 25.625 C4.66494141 24.65949219 4.64238281 23.69398437 4.61914062 22.69921875 C4.37236408 16.01381783 3.12560423 10.31921018 1 4 C0.65336302 2.67006328 0.31549459 1.33766664 0 0 Z " fill="#6FCAE5" transform="translate(119,43)"/>
<path d="M0 0 C0.99 0.99 1.98 1.98 3 3 C1 5 1 5 -0.87939453 5.22705078 C-1.62302246 5.21657715 -2.36665039 5.20610352 -3.1328125 5.1953125 C-3.93847656 5.18886719 -4.74414062 5.18242188 -5.57421875 5.17578125 C-6.41597656 5.15902344 -7.25773438 5.14226562 -8.125 5.125 C-9.39923828 5.11146484 -9.39923828 5.11146484 -10.69921875 5.09765625 C-12.79959884 5.07405647 -14.89983444 5.03818483 -17 5 C-17.33 3.68 -17.66 2.36 -18 1 C-17.34 1 -16.68 1 -16 1 C-15.67 1.66 -15.34 2.32 -15 3 C-10.05 3 -5.1 3 0 3 C0 2.01 0 1.02 0 0 Z " fill="#7EC4AB" transform="translate(141,106)"/>
<path d="M0 0 C4.88049925 3.9419417 9.0580583 8.11950075 13 13 C12.67 13.66 12.34 14.32 12 15 C11 14 10 13 9 12 C8.113125 11.154375 7.22625 10.30875 6.3125 9.4375 C4 7 4 7 4 5 C3.01 5 2.02 5 1 5 C0.67 3.35 0.34 1.7 0 0 Z " fill="#71DAEE" transform="translate(122,19)"/>
<path d="M0 0 C1.60938465 2.41407698 2.65490738 4.34044437 3.6875 7 C3.95949219 7.680625 4.23148438 8.36125 4.51171875 9.0625 C5 11 5 11 4 14 C4 13.34 4 12.68 4 12 C3.01 12 2.02 12 1 12 C0.45533613 7.915021 0 4.1274515 0 0 Z " fill="#70DDF1" transform="translate(137,37)"/>
<path d="M0 0 C2.375 0.25 2.375 0.25 5 1 C6.375 2.8125 6.375 2.8125 7 5 C6.71018504 6.34346425 6.38195265 7.67977235 6 9 C4.99712471 7.68969568 3.99777175 6.37669473 3 5.0625 C2.443125 4.33160156 1.88625 3.60070313 1.3125 2.84765625 C0 1 0 1 0 0 Z " fill="#66CCE1" transform="translate(112,34)"/>
<path d="M0 0 C14.78132118 -0.3690205 14.78132118 -0.3690205 21 2 C21 2.66 21 3.32 21 4 C19.7625 3.690625 18.525 3.38125 17.25 3.0625 C11.54835497 1.78031188 5.82126496 1.37429453 0 1 C0 0.67 0 0.34 0 0 Z " fill="#53DBF7" transform="translate(85,11)"/>
<path d="M0 0 C1.41623216 -0.05447047 2.83308191 -0.09300508 4.25 -0.125 C5.03890625 -0.14820312 5.8278125 -0.17140625 6.640625 -0.1953125 C9.20731941 0.0171622 10.7916067 0.71345895 13 2 C10.23547967 3.38226016 7.9538637 3.09525387 4.875 3.0625 C3.77929688 3.05347656 2.68359375 3.04445313 1.5546875 3.03515625 C0.29011719 3.01775391 0.29011719 3.01775391 -1 3 C-0.67 2.01 -0.34 1.02 0 0 Z " fill="#E1D88F" transform="translate(143,108)"/>
<path d="M0 0 C0.99 0 1.98 0 3 0 C1.16508812 4.74018901 -0.91941459 9.36413251 -3 14 C-3.33 14 -3.66 14 -4 14 C-4.17942163 10.05272412 -4.09350689 7.4019487 -2 4 C-1.34 4 -0.68 4 0 4 C0 2.68 0 1.36 0 0 Z " fill="#77CFE3" transform="translate(65,39)"/>
<path d="M0 0 C0 0.99 0 1.98 0 3 C-3.6441774 5.4294516 -5.71241272 5.16179575 -10 5 C-6.8745041 2.35534962 -3.91211733 1.15585285 0 0 Z " fill="#57CCE7" transform="translate(58,87)"/>
<path d="M0 0 C2.64 0 5.28 0 8 0 C7.67 0.99 7.34 1.98 7 3 C4.36 3 1.72 3 -1 3 C-0.67 2.01 -0.34 1.02 0 0 Z " fill="#FCF461" transform="translate(63,112)"/>
<path d="M0 0 C0.33 0.66 0.66 1.32 1 2 C-5.93 1.505 -5.93 1.505 -13 1 C-13 0.67 -13 0.34 -13 0 C-4.35287486 -2.63810598 -4.35287486 -2.63810598 0 0 Z " fill="#58CEEF" transform="translate(99,26)"/>
<path d="M0 0 C0.99 1.485 0.99 1.485 2 3 C4.05925139 3.72382467 4.05925139 3.72382467 6 4 C6 4.66 6 5.32 6 6 C6.66 6.33 7.32 6.66 8 7 C6.25 7.75 6.25 7.75 4 8 C1.75 6.3125 1.75 6.3125 0 4 C0 2.68 0 1.36 0 0 Z " fill="#70C6DB" transform="translate(42,87)"/>
<path d="M0 0 C2.31 0 4.62 0 7 0 C6.67 0.99 6.34 1.98 6 3 C4.02 3 2.04 3 0 3 C0 2.01 0 1.02 0 0 Z " fill="#59B6BF" transform="translate(48,92)"/>
<path d="M0 0 C0.99 0.33 1.98 0.66 3 1 C3.73046875 3.06640625 3.73046875 3.06640625 4.1875 5.5625 C4.34605469 6.38878906 4.50460938 7.21507812 4.66796875 8.06640625 C4.77753906 8.70449219 4.88710937 9.34257813 5 10 C3 9 3 9 2.1484375 6.93359375 C1.89320313 6.10988281 1.63796875 5.28617188 1.375 4.4375 C1.11460937 3.61121094 0.85421875 2.78492188 0.5859375 1.93359375 C0.39257812 1.29550781 0.19921875 0.65742187 0 0 Z " fill="#58D9EF" transform="translate(133,33)"/>
</svg>
