<?xml version="1.0" encoding="UTF-8"?>
<svg version="1.1" xmlns="http://www.w3.org/2000/svg" width="201" height="251">
<path d="M0 0 C10.50931264 8.67774039 16.66239146 20.81052253 18.55859375 34.21875 C18.65718317 36.60932932 18.70659751 39.0022 18.71972656 41.39477539 C18.72717392 42.4327829 18.72717392 42.4327829 18.73477173 43.49176025 C18.74929731 45.76665266 18.7561812 48.04147521 18.76171875 50.31640625 C18.76595982 51.49187924 18.76595982 51.49187924 18.77028656 52.69109917 C18.78524455 56.84281624 18.7944939 60.9944989 18.79882812 65.14624023 C18.80429055 69.40025527 18.82828086 73.65394665 18.85680008 77.90786076 C18.87558066 81.20847948 18.8806403 84.50902287 18.882164 87.80969048 C18.88515924 89.37592769 18.8930796 90.9421646 18.90634918 92.50834846 C19.04879735 110.62216715 15.85283694 125.44454598 3.03125 138.9296875 C-7.50267009 148.68146818 -19.93160271 152.87952381 -34.12988281 152.68945312 C-47.89690183 152.10520943 -60.46713202 146.27051227 -69.88671875 136.15234375 C-78.36479808 125.60799885 -82.52870806 113.49733646 -82.60253906 100.04272461 C-82.60750397 99.3507196 -82.61246887 98.6587146 -82.61758423 97.94573975 C-82.63210981 95.67084734 -82.6389937 93.39602479 -82.64453125 91.12109375 C-82.64735863 90.33744509 -82.650186 89.55379642 -82.65309906 88.74640083 C-82.66805705 84.59468376 -82.6773064 80.4430011 -82.68164062 76.29125977 C-82.68710305 72.03724473 -82.71109336 67.78355335 -82.73961258 63.52963924 C-82.75839316 60.22902052 -82.7634528 56.92847713 -82.7649765 53.62780952 C-82.76797174 52.06157231 -82.7758921 50.4953354 -82.78916168 48.92915154 C-82.92678464 31.42891004 -80.05582364 16.43783918 -67.703125 3.28515625 C-48.256397 -14.48223427 -21.06943859 -15.3722624 0 0 Z " fill="#292929" transform="translate(132.44140625,10.78125)"/>
<path d="M0 0 C3.4984732 2.25457162 5.51486005 4.13482808 7 8 C7.33477952 10.75835431 7.59592538 13.48304729 7.8125 16.25 C9.99254516 38.74524137 19.65569864 56.63891989 36.8125 71.3125 C53.49356765 83.92821311 73.68571796 88.40116206 94.26806641 85.70263672 C109.06365366 83.28497203 121.84149025 77.08744861 133 67 C133.70769531 66.37351562 134.41539062 65.74703125 135.14453125 65.1015625 C149.34724092 51.79500851 155.83619583 33.36865744 157.09057617 14.36889648 C157.5197299 9.23980818 158.65003333 6.10200001 162 2 C165.41984276 -0.40943467 167.95135056 -1.24719111 172.0625 -0.9375 C175.93231635 -0.24936822 178.26398919 1.10304738 181 4 C186.67522592 15.73013246 182.041744 32.51497093 178.23632812 44.38134766 C173.27904353 58.34674354 165.72242531 69.84110824 156 81 C155.45988281 81.62519531 154.91976562 82.25039062 154.36328125 82.89453125 C139.07608297 99.33693343 117.53524088 107.84650838 96 112 C95.98541748 112.85231201 95.97083496 113.70462402 95.95581055 114.58276367 C95.89456715 117.76071175 95.82037971 120.93802546 95.73754883 124.11547852 C95.70440194 125.48775958 95.67633829 126.86017362 95.65356445 128.23266602 C95.61983234 130.21137766 95.5659851 132.18971376 95.51171875 134.16796875 C95.48553467 135.35672607 95.45935059 136.5454834 95.43237305 137.77026367 C94.77531395 142.67835788 92.99559946 145.16279137 89.25 148.3125 C85.38396703 150.31986327 83.30179863 150.61454266 79 150 C74.54450877 147.68657186 72.19096828 145.48222321 70 141 C69.56762695 137.77026367 69.56762695 137.77026367 69.48828125 134.16796875 C69.45283203 132.87568359 69.41738281 131.58339844 69.38085938 130.25195312 C69.35776319 128.89714066 69.33498065 127.54232282 69.3125 126.1875 C69.27930239 124.81311883 69.24481047 123.43876829 69.20898438 122.06445312 C69.12658736 118.70971766 69.05740605 115.35524096 69 112 C67.94683594 111.78085938 66.89367187 111.56171875 65.80859375 111.3359375 C37.31202062 105.1734371 13.35969728 90.57776089 -2.79052734 65.91943359 C-13.53924626 48.86121233 -19.7006956 28.26257329 -18 8 C-16.74015517 3.85617302 -14.41550262 2.24302983 -10.6875 0.0625 C-6.51071315 -1.14098096 -4.17566881 -1.159908 0 0 Z " fill="#2A2A2A" transform="translate(18,101)"/>
</svg>
