<?xml version="1.0" encoding="UTF-8"?>
<svg version="1.1" xmlns="http://www.w3.org/2000/svg" width="229" height="234">
<path d="M0 0 C75.57 0 151.14 0 229 0 C229 77.22 229 154.44 229 234 C153.43 234 77.86 234 0 234 C0 156.78 0 79.56 0 0 Z " fill="#FEFEFE" transform="translate(0,0)"/>
<path d="M0 0 C3.31743718 2.21162479 5.34860926 4.18644523 6.8125 7.875 C7.36165201 12.15786339 7.27767933 16.3992605 7.203125 20.7109375 C7.19746521 21.94542633 7.19180542 23.17991516 7.18597412 24.45181274 C7.16362875 28.38494042 7.11343247 32.31714881 7.0625 36.25 C7.04017659 38.9205596 7.02418254 41.59111055 7.0078125 44.26171875 C6.96376972 50.79979149 6.89687431 57.33733006 6.8125 63.875 C7.48822052 63.86833817 8.16394104 63.86167633 8.86013794 63.85481262 C15.90052527 63.78838132 22.94082338 63.74316679 29.98144531 63.71020508 C32.60810971 63.6951298 35.23474899 63.67466634 37.86132812 63.64868164 C41.63938604 63.61224424 45.41711077 63.59526062 49.1953125 63.58203125 C50.36740265 63.56654739 51.5394928 63.55106354 52.74710083 63.53511047 C59.8877045 63.53364047 64.6783213 63.9949439 70.125 69 C72.41744697 72.9056504 73.02733574 76.3634494 72.8125 80.875 C71.07622522 85.5629419 69.11450363 88.78673356 64.56196594 90.93893433 C61.58852371 91.95125354 59.3291706 92.11645596 56.19604492 92.10205078 C55.09528122 92.10189972 53.99451752 92.10174866 52.86039734 92.10159302 C51.09452019 92.08610916 51.09452019 92.08610916 49.29296875 92.0703125 C48.07926102 92.0674826 46.86555328 92.06465271 45.61506653 92.06173706 C41.74327689 92.05055308 37.87171959 92.0254513 34 92 C31.37305022 91.98996792 28.74609681 91.98084246 26.11914062 91.97265625 C19.68351464 91.95061954 13.24802392 91.91715941 6.8125 91.875 C6.82249275 92.88858078 6.82249275 92.88858078 6.83268738 93.92263794 C6.89911868 100.96302527 6.94433321 108.00332338 6.97729492 115.04394531 C6.9923702 117.67060971 7.01283366 120.29724899 7.03881836 122.92382812 C7.07525576 126.70188604 7.09223938 130.47961077 7.10546875 134.2578125 C7.12095261 135.42990265 7.13643646 136.6019928 7.15238953 137.80960083 C7.1544955 148.03949154 7.1544955 148.03949154 3.8125 152.875 C0.56543595 155.81765179 -2.10102651 156.793002 -6.5 157.125 C-11.40239866 156.79263399 -14.67090722 155.54848168 -18 151.875 C-20.11589854 148.3113814 -20.31013833 145.44905518 -20.30102539 141.39379883 C-20.30091209 139.71239555 -20.30091209 139.71239555 -20.30079651 137.99702454 C-20.29305458 136.18285286 -20.29305458 136.18285286 -20.28515625 134.33203125 C-20.2837413 133.09329758 -20.28232635 131.8545639 -20.28086853 130.57829285 C-20.27621602 127.28868463 -20.2672339 123.9991254 -20.25616455 120.70953369 C-20.24592629 117.35128377 -20.24136574 113.99302667 -20.23632812 110.63476562 C-20.22529145 104.04815788 -20.20854767 97.46158295 -20.1875 90.875 C-20.90080475 90.88610306 -21.6141095 90.89720612 -22.34902954 90.90864563 C-29.08703293 91.00903025 -35.8248262 91.08505677 -42.56340981 91.13406086 C-46.02746225 91.16010226 -49.49089438 91.19539692 -52.95458984 91.25219727 C-56.94100394 91.31715686 -60.92717106 91.34122587 -64.9140625 91.36328125 C-66.15177399 91.38908768 -67.38948547 91.4148941 -68.66470337 91.44148254 C-78.26720129 91.44460676 -78.26720129 91.44460676 -81.93115234 88.49291992 C-85.15724489 84.74985669 -86.02932707 82.32491853 -86.5625 77.4375 C-86.04007903 72.47450082 -84.03054761 69.58455229 -80.40802002 66.22441101 C-77.56624392 64.4974624 -75.72314912 64.51281098 -72.40917969 64.53442383 C-71.2482782 64.53465042 -70.08737671 64.53487701 -68.89129639 64.53511047 C-67.0192453 64.55833626 -67.0192453 64.55833626 -65.109375 64.58203125 C-63.82766418 64.58627609 -62.54595337 64.59052094 -61.22540283 64.59489441 C-57.82550365 64.60632352 -54.42599177 64.63577334 -51.02624512 64.66900635 C-47.55400837 64.69974937 -44.08170876 64.71340874 -40.609375 64.72851562 C-33.8019247 64.76064542 -26.99473097 64.81181797 -20.1875 64.875 C-20.19638245 64.17422333 -20.20526489 63.47344666 -20.2144165 62.75143433 C-20.29473103 56.13111713 -20.35554951 49.51093687 -20.39474869 42.89024162 C-20.41557946 39.48683682 -20.44381258 36.08383625 -20.48925781 32.68066406 C-20.5412335 28.76372194 -20.56048269 24.84694065 -20.578125 20.9296875 C-20.59877014 19.71384979 -20.61941528 18.49801208 -20.64068604 17.24533081 C-20.64349448 6.64147798 -20.64349448 6.64147798 -16.1875 1.875 C-10.79549763 -1.71966825 -6.09470909 -2.1510738 0 0 Z " fill="#859C88" transform="translate(123.1875,34.125)"/>
</svg>
