<?xml version="1.0" encoding="UTF-8"?>
<svg version="1.1" xmlns="http://www.w3.org/2000/svg" width="291" height="285">
<path d="M0 0 C8.86838941 6.12901171 13.41560804 13.65982633 16 24 C16.16573161 26.46360951 16.23572974 28.93489024 16.22705078 31.40405273 C16.22734283 32.107332 16.22763489 32.81061127 16.22793579 33.53520203 C16.22655446 35.83479623 16.21105057 38.13405691 16.1953125 40.43359375 C16.1915781 42.03784508 16.18873314 43.64209871 16.18673706 45.24635315 C16.17913422 49.45000608 16.15951484 53.65351881 16.1373291 57.8571167 C16.11679819 62.15407414 16.1077199 66.45105443 16.09765625 70.74804688 C16.0762655 79.16542862 16.04217043 87.58269682 16 96 C16.9004303 95.98889694 17.8008606 95.97779388 18.72857666 95.96635437 C27.26011859 95.86571011 35.79145798 95.78981195 44.32345963 95.74093914 C48.70873824 95.7149673 53.09352182 95.67980005 57.47851562 95.62280273 C61.71906064 95.56803487 65.95913287 95.53848639 70.20000458 95.52561378 C71.80899232 95.51645343 73.41795743 95.4985676 75.02674103 95.47134972 C88.26684878 95.25648324 99.15790743 97.2608835 109.08984375 106.7421875 C116.71594106 115.75626571 117.78192801 125.63904596 117 137 C115.32781179 145.2705525 110.24719736 151.52034322 104 157 C96.95180107 161.49928951 91.066843 163.1276647 82.75292969 163.11352539 C81.6694072 163.11374443 81.6694072 163.11374443 80.56399536 163.1139679 C78.18325772 163.11327284 75.80259892 163.1054995 73.421875 163.09765625 C71.76849409 163.09579063 70.11511262 163.0943674 68.46173096 163.09336853 C64.11505603 163.08955473 59.76841463 163.07973415 55.42175293 163.06866455 C50.98429823 163.05842599 46.54683811 163.05386567 42.109375 163.04882812 C33.40623463 163.03811086 24.70312149 163.02104809 16 163 C16.00999275 164.31972305 16.00999275 164.31972305 16.02018738 165.66610718 C16.08051238 173.99230025 16.1260826 182.31841901 16.15543652 190.64478111 C16.17103542 194.92457849 16.19216697 199.20419398 16.22631836 203.48388672 C16.25911939 207.62065014 16.27689635 211.75723955 16.28463173 215.89412308 C16.29013826 217.46564087 16.30089037 219.03715008 16.31719017 220.60859299 C16.4395786 232.90656782 15.89540677 243.6588539 7 253 C-1.79246383 261.24603953 -9.66031984 263.59894415 -21.63671875 263.27734375 C-30.35835449 262.55813802 -36.80651087 259.19348913 -43 253 C-52.20052047 241.55630502 -52.29751211 230.07198466 -52.1953125 215.9296875 C-52.19157458 214.39698472 -52.1887313 212.86427953 -52.18673706 211.33157349 C-52.17916183 207.33017179 -52.15956714 203.32891916 -52.1373291 199.32757568 C-52.11673775 195.23142512 -52.10770714 191.13525008 -52.09765625 187.0390625 C-52.07631441 179.02597385 -52.04225389 171.01300556 -52 163 C-52.89012283 163.00888245 -53.78024567 163.01776489 -54.69734192 163.0269165 C-63.12621258 163.10739139 -71.55495238 163.16813061 -79.98412037 163.20724869 C-84.3166487 163.22803651 -88.64885698 163.25619092 -92.98120117 163.30175781 C-97.16985361 163.34553275 -101.35820011 163.36920315 -105.54706383 163.37950897 C-107.13731381 163.38684404 -108.72754891 163.40116625 -110.31766701 163.42292023 C-122.16140242 163.5783625 -132.68708806 162.53158597 -142.21875 154.7578125 C-149.17847277 147.88966503 -153.00912923 139.35316193 -153.4375 129.625 C-153.10457999 119.69288628 -149.08950988 110.94096777 -142 104 C-134.14435809 98.02817434 -126.28692212 95.73842633 -116.48242188 95.77294922 C-115.77899658 95.77265717 -115.07557129 95.77236511 -114.35083008 95.77206421 C-112.05667195 95.77344268 -109.76285044 95.78893273 -107.46875 95.8046875 C-105.86592791 95.80842292 -104.26310352 95.81126739 -102.66027832 95.81326294 C-98.46485972 95.82085775 -94.26958209 95.84047003 -90.07421875 95.8626709 C-85.78387356 95.88321931 -81.49350534 95.8922838 -77.203125 95.90234375 C-68.80201902 95.9237203 -60.4010271 95.95780542 -52 96 C-52.00999275 94.74331512 -52.00999275 94.74331512 -52.02018738 93.46124268 C-52.08060575 85.51829413 -52.1261293 77.57542413 -52.15543652 69.63229752 C-52.17101078 65.54984892 -52.1920959 61.46759215 -52.22631836 57.38525391 C-52.25920907 53.43651222 -52.27691475 49.48795362 -52.28463173 45.53908539 C-52.29012248 44.04178745 -52.30084251 42.54449812 -52.31719017 41.04727936 C-52.46627566 26.81098674 -51.22013984 14.66824041 -41 4 C-29.00983791 -5.21893819 -13.54910969 -7.41130037 0 0 Z " fill="#030303" transform="translate(162,13)"/>
<path d="M0 0 C0.66 0.33 1.32 0.66 2 1 C-2.33333333 5.33333333 -6.66666667 9.66666667 -11 14 C-9.18352668 8.00563806 -5.14218863 3.42812575 0 0 Z " fill="#424242" transform="translate(125,14)"/>
<path d="M0 0 C0.66 0.33 1.32 0.66 2 1 C0.25 4.875 0.25 4.875 -2 6 C-4.32873375 6.68255989 -6.66182791 7.35050775 -9 8 C-6.14723863 5.06799526 -3.34920216 2.35684596 0 0 Z " fill="#373737" transform="translate(26,113)"/>
</svg>
