<?xml version="1.0" encoding="UTF-8"?>
<svg version="1.1" xmlns="http://www.w3.org/2000/svg" width="223" height="148">
<path d="M0 0 C2.65876236 3.03858555 3.02257798 5.07723885 3.53515625 8.98828125 C2.67576192 15.19716391 -1.91718188 20.08299944 -5.9375 24.625 C-10.10302895 29.43700011 -14.05460563 34.34046987 -17.90087891 39.41259766 C-21.28084406 43.85086893 -24.77967807 48.18273441 -28.3125 52.5 C-32.23878007 57.30163808 -36.1143333 62.12991526 -39.875 67.0625 C-43.93530668 72.38426119 -48.08802771 77.62278354 -52.27929688 82.84179688 C-55.66815166 87.06376321 -59.03332052 91.30309842 -62.375 95.5625 C-63.05187866 96.42500366 -63.05187866 96.42500366 -63.74243164 97.30493164 C-65.99414366 100.1761367 -68.24232535 103.05007211 -70.48828125 105.92578125 C-75.52464069 112.36680854 -80.60861338 118.76740252 -85.75 125.125 C-86.29382324 125.80030762 -86.83764648 126.47561523 -87.39794922 127.17138672 C-94.72575217 136.1981256 -94.72575217 136.1981256 -99.1875 137.4375 C-104.53499781 137.52969824 -107.59730972 135.59962463 -111.5234375 132.046875 C-112.84214844 130.66242188 -112.84214844 130.66242188 -114.1875 129.25 C-117.33514542 125.9956909 -120.48827123 122.81374291 -123.9375 119.875 C-127.69275787 116.67153512 -131.12502 113.20377475 -134.58984375 109.69140625 C-136.6245595 107.6852981 -138.70835437 105.79886484 -140.875 103.9375 C-153.60805475 92.99423206 -153.60805475 92.99423206 -154.125 86.6875 C-154.06407446 83.63568408 -153.7748797 82.42789442 -152.3125 79.625 C-149.11559742 76.9076328 -146.03117878 75.63355221 -141.8125 75.5 C-137.25034996 76.72453782 -134.2766022 79.49813332 -130.9375 82.6875 C-130.40866211 83.18217773 -129.87982422 83.67685547 -129.33496094 84.18652344 C-125.96986552 87.34942428 -122.69093994 90.58986294 -119.45703125 93.88671875 C-116.98758178 96.30924281 -114.36073165 98.5393539 -111.734375 100.7890625 C-109.89093943 102.43016977 -108.19752699 104.14753342 -106.5 105.9375 C-104.06952501 108.84503767 -104.06952501 108.84503767 -100.8125 108.5 C-99.01294477 106.49981868 -97.41427227 104.52566092 -95.8125 102.375 C-94.8218338 101.07925945 -93.83094227 99.78369115 -92.83984375 98.48828125 C-92.33565918 97.8226416 -91.83147461 97.15700195 -91.31201172 96.47119141 C-89.03299901 93.47530267 -86.70491685 90.51885676 -84.375 87.5625 C-83.92447266 86.98870605 -83.47394531 86.41491211 -83.00976562 85.82373047 C-79.1351944 80.89283166 -75.21674739 75.99767885 -71.29321289 71.10571289 C-67.94163725 66.92287289 -64.6176762 62.71957653 -61.3125 58.5 C-57.50812215 53.64311416 -53.67252227 48.81277725 -49.8125 44 C-45.93486213 39.16402717 -42.07722293 34.3134832 -38.25 29.4375 C-37.80156738 28.86676758 -37.35313477 28.29603516 -36.89111328 27.70800781 C-34.58292684 24.7672935 -32.28401258 21.81979398 -29.99609375 18.86328125 C-14.76771863 -0.76955983 -14.76771863 -0.76955983 -10.7421875 -2.2734375 C-6.65119745 -2.75375617 -3.60576079 -1.92307242 0 0 Z " fill="#718385" transform="translate(156.8125,6.5)"/>
</svg>
