<?xml version="1.0" encoding="UTF-8"?>
<svg version="1.1" xmlns="http://www.w3.org/2000/svg" width="279" height="276">
<path d="M0 0 C4.71787139 2.60401993 7.2846637 5.42699555 10.25 9.875 C15.00554587 16.4651727 20.78300411 21.5255484 29 23 C39.16464032 23.84016675 46.77008557 22.52013471 55.25 16.8125 C58.20934807 13.78589402 60.35456382 10.64646121 62.62109375 7.08984375 C64.99563305 3.49103774 66.90043327 1.36652224 71 0 C77.58972641 -0.70721826 82.74495011 0.56504151 88.75 3.1875 C89.47832031 3.47947266 90.20664063 3.77144531 90.95703125 4.07226562 C96.24946811 6.30546267 99.89501135 9.09311091 103.3125 13.8125 C104.52232639 17.66194761 104.5565152 21.92852674 103.5078125 25.83203125 C101.73413748 33.4042592 102.00382709 42.05392156 105.67578125 48.97265625 C110.44709141 56.27740544 115.48197847 60.93664308 123.86328125 63.58984375 C126.60415156 64.11597059 129.21014235 64.13197464 132 64.125 C133.03125 64.12757812 134.0625 64.13015625 135.125 64.1328125 C137.62683365 64.01723866 139.60336967 63.64169412 142 63 C144.33203125 62.7265625 144.33203125 62.7265625 146.8125 62.625 C147.62332031 62.57601562 148.43414062 62.52703125 149.26953125 62.4765625 C153.36424155 63.26152842 156.0783308 65.04432286 159 68 C160.87902559 70.94257864 162.16578681 74.00598911 163.4375 77.25 C163.78748047 78.05824219 164.13746094 78.86648437 164.49804688 79.69921875 C166.73196156 85.16378501 167.77492775 90.09472202 167 96 C164.54399672 101.84762686 159.9017725 104.05929371 154.6953125 107.2109375 C148.61956919 111.24382219 144.12267689 117.18284028 142.44921875 124.36328125 C140.84242305 133.7944734 142.09526366 141.69876343 147 150 C151.02215458 154.69108434 156.05076801 157.73685636 161.3046875 160.87890625 C164.57906639 163.04422132 165.784744 165.35423199 167 169 C167.43457819 175.20920045 166.48031647 179.45474403 163.875 185.0625 C163.56022705 185.76060791 163.2454541 186.45871582 162.92114258 187.17797852 C160.39468755 192.58437649 157.56645608 198.21677196 152 201 C147.16397702 201.38652228 142.50131803 201.29378345 137.8125 200 C129.15226082 197.72846185 121.51046116 199.57129015 113.75 203.75 C106.27296359 209.86757524 101.82734882 216.89514204 100.6875 226.68359375 C100.56211451 231.83223542 101.50932724 236.0621465 103 241 C103.49550133 245.62467912 103.19006831 249.28196477 100.65234375 253.30078125 C94.50803275 259.61939894 82.68494118 263.91430426 73.875 264.4375 C69.43590732 263.93631212 66.2697485 263.03180906 63 260 C61.27042041 257.5193119 59.78632992 255.00536347 58.359375 252.33984375 C57.09109256 250.15679438 55.77293772 248.75729415 54 247 C54 246.34 54 245.68 54 245 C53.41863281 244.71382812 52.83726562 244.42765625 52.23828125 244.1328125 C50.86176702 243.43614736 49.500064 242.70792652 48.16796875 241.9296875 C40.51333441 237.85325501 31.63091683 237.5599092 23.28125 239.6953125 C15.90711579 242.70052473 10.85440316 247.20944815 7 254.125 C4.24125093 258.98391084 2.23333742 260.98011538 -3 263 C-8.38568168 263.41974737 -12.53625587 262.40608198 -17.4375 260.3125 C-18.09202148 260.03849365 -18.74654297 259.7644873 -19.42089844 259.48217773 C-31.54568423 254.29164909 -31.54568423 254.29164909 -35.0625 248.75 C-36.35793919 243.56824325 -35.83429174 239.13940893 -34.47265625 234.015625 C-32.40511257 225.19866187 -34.57707799 216.5245337 -39.28515625 208.92578125 C-43.59474275 203.39174399 -50.04242436 199.23233812 -57 198 C-62.79396126 197.73942502 -68.59269935 197.65270505 -74.3125 198.6875 C-78.91499487 199.07754194 -82.0060229 198.26950824 -86 196 C-90.57240303 191.81951723 -92.64299302 185.62183644 -95 180 C-95.433125 178.96875 -95.86625 177.9375 -96.3125 176.875 C-97.58877194 171.53786278 -97.86085941 166.95649866 -95.625 161.875 C-91.34496953 157.18734758 -86.0685922 153.02286407 -80 151 C-78.97549761 148.81862203 -78.97549761 148.81862203 -78 146 C-77.314394 144.79059101 -76.62671074 143.58235838 -75.9375 142.375 C-72.66444511 135.82889022 -72.22310712 128.92600604 -74.0625 121.875 C-77.2498374 112.89638437 -81.8340606 107.79463933 -89.71875 102.60546875 C-92.83419605 100.41292025 -94.46319135 98.49274692 -96 95 C-96.91592407 88.18012509 -95.22917543 82.87350364 -92.375 76.75 C-92.04371094 75.97398438 -91.71242188 75.19796875 -91.37109375 74.3984375 C-88.76202542 68.62895055 -85.79079076 64.89539538 -80 62 C-74.78170193 61.65279426 -69.67500792 62.01761989 -64.5 62.6875 C-56.04668456 63.49711331 -48.89460143 60.750375 -42.04296875 55.86328125 C-36.5638804 50.86610124 -32.60999184 43.44757477 -32 36 C-32.12005281 33.52856811 -32.38499696 31.10740088 -32.69140625 28.65234375 C-33.37471665 22.77933409 -33.8622299 17.28490923 -31.75 11.6875 C-27.48040015 7.51493651 -22.42578762 5.37334452 -17 3 C-15.88818359 2.48373047 -15.88818359 2.48373047 -14.75390625 1.95703125 C-10.03095433 -0.067091 -5.06261745 -1.10472924 0 0 Z M-3 77 C-3.71027344 77.474375 -4.42054687 77.94875 -5.15234375 78.4375 C-18.15001863 87.61819934 -27.47271939 102.45132603 -30.3828125 118.05224609 C-32.78032787 132.47878473 -31.8514495 145.43330598 -26 159 C-25.71382813 159.68320313 -25.42765625 160.36640625 -25.1328125 161.0703125 C-17.68150902 177.35767497 -4.13745355 188.05029373 12 195 C28.52457602 200.88853572 45.98596732 199.9070109 62 193 C62.68320313 192.71382813 63.36640625 192.42765625 64.0703125 192.1328125 C80.35767497 184.68150902 91.05029373 171.13745355 98 155 C104.2497566 137.46175569 102.68132048 118.81377202 95 102 C92.58459765 97.79172168 89.91074863 93.87906541 87 90 C86.51789063 89.33355469 86.03578125 88.66710937 85.5390625 87.98046875 C75.37347684 74.96499347 58.75648139 67.89687456 42.84765625 65.53125 C26.35129734 63.77163838 10.68917433 67.73490739 -3 77 Z " fill="#050505" transform="translate(106,8)"/>
<path d="M0 0 C0.66 0.33 1.32 0.66 2 1 C-0.31 3.31 -2.62 5.62 -5 8 C-5.33 7.34 -5.66 6.68 -6 6 C-2.25 1.125 -2.25 1.125 0 0 Z " fill="#5E5E5E" transform="translate(80,15)"/>
</svg>
